<?xml version="1.0" encoding="UTF-8"?>
<svg id="Layer_1" data-name="Layer 1" xmlns="http://www.w3.org/2000/svg" viewBox="0 0 50 50">
  <path d="M28.01,25.02c.08.08.67-.53.73-.62.74-1.09.72-1.76.66-3.15,0-.11-.05-.22.11-.18,1.1,1.34,2.45,2.45,3.18,4.07,2.19,4.6-.78,10.41-5.44,12.05-.05.02-.1-.05-.06-.09,2.08-2.59,2.58-6.83,0-9.22-.03-.03-.08,0-.09.03-.09,1.13-.9,2.17-1.96,2.54-.34.12-.03-.39,0-.58.34-1.78.37-3.14-.68-4.7-.12-.18-1.41-1.65-1.57-1.47-.04.05-.06,1.04-.09,1.26-.51,3.11-3.02,4.18-3.48,7-.28,1.74.52,3.83,1.43,4.59.05.07-.03.11-.12.06-.29-.18-1.09-.8-1.36-1.04-3.07-2.71-3.34-6.73-1.59-10.3,2.84-4.85,6.94-5.58,5.52-12.43,0-.02.01-.04.03-.03,4.78,1.83,6.57,7.68,4.79,12.21Z"/>
</svg>