<?xml version="1.0" encoding="UTF-8"?>
<svg id="Layer_1" data-name="Layer 1" xmlns="http://www.w3.org/2000/svg" viewBox="0 0 50 50">
  <defs>
    <style>
      .cls-1 {
        fill: rgba(255, 255, 255, 0);
      }
    </style>
  </defs>
  <g id="Queimada">
    <path class="cls-1" d="M0,.02h50.02v49.97H0V.02Z"/>
    <path d="M20.13,32.17c-2.31.29-4.91,1.46-5.48,3.61-.29,1.01,0,1.74.42,2.31.29-.73.28-1.01.73-1.46.29-.29.86-.7,1.17-1.01,0,2.47,1.72,2.75,1.43,4.78-.13.73-.29,1.02-.44,1.59,2.76-.29,3.61-3.33,3.2-4.34-.44-1.14-2.03-2.02-1.59-4.02.13-.6.42-1.01.57-1.46ZM5.1,42.27v4.18h40.73v-4.18H5.1Z"/>
  </g>
</svg>