<?xml version="1.0" encoding="UTF-8"?>
<svg id="Layer_1" data-name="Layer 1" xmlns="http://www.w3.org/2000/svg" viewBox="0 0 50 50">
  <defs>
    <style>
      .cls-1 {
        fill: rgba(255, 255, 255, 0);
      }
    </style>
  </defs>
  <g id="Queimada">
    <path class="cls-1" d="M0,.03h50.02v49.97H0V.03Z"/>
    <path d="M13.06,3.9c.29.86.86,1.59.42,2.89-.42,1.01-1.14,1.45-1.3,2.18-.42.99.58,3.74,2.89,4.02-.57-1.3-1.72-2.31-.42-3.74.29-.29.57-.6.7-1.17,1.17-2.31-.13-3.74-2.29-4.18ZM24.16,7.51c-1.59.73-4.32,2.6-5.33,3.9-.88,1.01-1.02,1.74-1.46,3.17-.42,1.3.45,2.59.73,3.76l-.16-.28-2.29-1.3c-2.18-1.17-5.93-2.47-8.24-2.75.13.73.45,1.3.73,1.87.7,2.6.41,4.05-.6,6.36l-.86,1.71c-1.01,1.9-1.87,2.75-2.44,5.35-.44,1.43-.45,3.04.13,4.46.44,1.45,1.3,2.19,2.18,3.04,1.72,1.43,2.45,2.15,4.47,3.17l1.58.73c.44,0,.44,0,.13-.45-.13-.13-.13-.28-.28-.41-1.43-2.6-2.01-5.64-.71-8.23,1.72-3.48,3.74-3.9,4.03-8.08.29.13,1.3.7,1.58,1.01,2.31,1.58,2.31,3.3,3.04,4.91.44-.44.73-2.47.86-3.04.16-1.3-.13-2.19-.28-3.48.16.31,1.74,2.63,2.03,2.91,1.74,2.44,3.17,5.76,3.33,8.77,0,1.01-.16,1.33-.29,2.03l1.3-1.3c.42-.42.86-1.01,1.3-1.43.7-1.01,1.43-2.18,2.01-3.32.73-1.45,1.01-2.75.28-4.34-.86-1.87-2.16-3.17-3.3-4.75-.44-.57-.73-1.01-1.17-1.58-2.31-3.17-3.45-6.21-2.73-10.26.13-.7.42-1.58.42-2.16h0ZM34.71,22.23c.44,2.16.86,3.17-.15,5.33-1.01,2.31-2.16,3.04-2.89,4.18-1.01,1.61-1.43,2.31-.73,4.05.6,1.14,1.17,2.02,1.9,2.88l.52.52c-.12-.72-.2-1.13.05-2.11.29-1.45,1.01-2.75,1.74-3.9l.99-1.46.16-.13.15-.16c-.16,1.17-.31,2.75.29,3.76.29-.44.57-1.45,1.3-2.02.29-.29,1.58-1.17,2-1.3.16,1.45.6,2.73,1.46,3.74.57.88,1.74,1.74,1.01,3.9-.44,1.3-1.17,2.03-1.17,2.47,1.61-.29,4.62-2.47,5.07-4.05.86-2.73-1.17-4.91-1.87-6.78-.88-2.16-.6-2.88.13-4.9-1.43.16-3.61.88-4.91,1.58-.42.29-1.02.6-1.43.73.13-.73.73-1.42.42-2.15-.29-.86-.42-1.3-.86-1.87-.44-.44-2.32-2.03-3.17-2.31h0ZM33.37,39.19c.03.12.03.19.05.33h.29l-.34-.33ZM20.13,32.18c-2.31.29-4.91,1.46-5.48,3.61-.29,1.01,0,1.74.42,2.31.29-.73.28-1.01.73-1.46.29-.29.86-.7,1.17-1.01,0,2.47,1.72,2.75,1.43,4.78-.13.73-.29,1.02-.44,1.59,2.76-.29,3.61-3.33,3.2-4.34-.44-1.14-2.03-2.02-1.59-4.02.13-.6.42-1.01.57-1.46ZM5.11,42.28v4.18h40.73v-4.18H5.11Z"/>
  </g>
</svg>